<svg xmlns="http://www.w3.org/2000/svg" viewBox="0 0 45.66 35.016"><defs><style>.a{fill:#d86827;fill-rule:evenodd;}</style></defs><g transform="translate(0 0.007)"><path class="a" d="M42.56,8.24C30.35,1.7,18.14,17.21,5.93,13.55V31.02a9.992,9.992,0,0,1-1.08-.46V11.9a14.808,14.808,0,0,0,5.05.88c4.54,0,9.07-1.96,13.45-3.92C27.58,7.06,31.9,5.2,36.08,5.2A12.285,12.285,0,0,1,42.57,7V8.24Zm-16.8,18.5c-8.71,3.71-8.86-10.51,0-14.32,7.68-3.3,9.95,10.1,0,14.32ZM2.83,8.71V26.33c-.31-.21-.52-.36-.82-.57V7.32c7.26,4.48,14.43,1.39,21.33-1.6C29.01,3.25,34.42.93,39.72,2.58V3.66a14.174,14.174,0,0,0-3.66-.46c-4.59,0-9.12,1.96-13.5,3.86-4.23,1.75-8.55,3.66-12.68,3.66A12.3,12.3,0,0,1,4.26,9.43ZM26.99,21.33a1.226,1.226,0,0,0-.24-.73,3.333,3.333,0,0,0-.88-.63,5.766,5.766,0,0,1-1.76-1.17,2.059,2.059,0,0,1-.58-1.56,1.783,1.783,0,0,1,.58-1.41,2.181,2.181,0,0,1,1.51-.49l.05-1.17.83.05v1.22a2.643,2.643,0,0,1,1.51.98,2.232,2.232,0,0,1,.49,1.71v.05l-1.51-.2a2.025,2.025,0,0,0-.24-.98,1.17,1.17,0,0,0-.73-.44,1.206,1.206,0,0,0-.73.19,1.214,1.214,0,0,0-.2.64,1.119,1.119,0,0,0,.24.73,2.239,2.239,0,0,0,.88.59,7.2,7.2,0,0,1,1.76,1.22,2.143,2.143,0,0,1,.59,1.56,1.662,1.662,0,0,1-.59,1.42,2.25,2.25,0,0,1-1.56.54v1.02l-.83-.1V23.35a3.132,3.132,0,0,1-1.71-.93,2.5,2.5,0,0,1-.58-1.86V20.5l1.51.19a1.5,1.5,0,0,0,.34,1.07,1.189,1.189,0,0,0,.83.39,1.216,1.216,0,0,0,.78-.15.978.978,0,0,0,.24-.67ZM44.57,9.48V5.82l-.51-.31a11.8,11.8,0,0,0-2.32-1.19V1.08L41.12.87c-6.34-2.32-12.57.41-18.55,2.99C15.31,7.01,8.5,9.95,1.65,4.58L0,3.3V26.75l.41.31a13.87,13.87,0,0,0,2.42,1.6v3.19l.57.31a21.162,21.162,0,0,0,2.53.93v1.34c13.24,4.02,26.43-14.63,39.73-3.2Z"/></g></svg>