<svg xmlns="http://www.w3.org/2000/svg" viewBox="0 0 33.39 40"><defs><style>.a{fill:#fff;}.b{fill:#d86827;}</style></defs><rect class="a" width="29.75" height="26.12" transform="translate(1.82 13.88)"/><path class="b" d="M15.01,13.85H0V21.1H15.02Z"/><rect class="b" width="15.02" height="7.25" transform="translate(18.37 13.85)"/><rect class="b" width="13.2" height="17.8" transform="translate(1.82 22.2)"/><path class="b" d="M31.57,40H18.37V22.2h13.2Z"/><path class="b" d="M33.27,14.48c0-.6,0-.6-.61-.6H19.83A24.633,24.633,0,0,0,25,12.92a11.533,11.533,0,0,0,4.19-2.19,3.734,3.734,0,0,0,.58-5.39,28.667,28.667,0,0,0-3.16-3.45,4.119,4.119,0,0,0-5.22-.25,8.449,8.449,0,0,0-2.07,2.31,21.422,21.422,0,0,0-2.18,4.83c-.29.87-.53,1.74-.81,2.67-.11-.73-.2-1.42-.32-2.09a22.114,22.114,0,0,0-1.88-6.3A5.324,5.324,0,0,0,10.91,0H9.2a5.581,5.581,0,0,0-2,.75C6.1,1.47,5.03,2.24,4,3.06A3.42,3.42,0,0,0,2.82,6.6,5.764,5.764,0,0,0,4.77,9.81a15.186,15.186,0,0,0,4.61,2.74,24,24,0,0,0,4.48,1.32q-6.6.015-13.2.01c-.52,0-.53.01-.53.51v5.94c0,.59.02.61.62.61,4.6,0,9.19-.01,13.79,0,.38,0,.49-.12.49-.5-.02-1.99,0-3.98-.01-5.98a1.436,1.436,0,0,1,.02-.24v-.28h2.88a1.651,1.651,0,0,1,.32,0h.17v.26c0,.06.01.13.01.22,0,1.99.01,3.98-.01,5.97v.05c0,.37.11.5.49.5q6.945-.015,13.9,0c.39,0,.51-.14.51-.53C33.27,18.43,33.27,16.46,33.27,14.48ZM14.93,13.25c-.69-.55-1.4-1.08-2.07-1.65A27.758,27.758,0,0,1,8.82,7.53,8.065,8.065,0,0,1,7.25,4.55c-.07-.28-.21-.68-.01-.81.21-.15.44.21.64.37a20.4,20.4,0,0,1,3.84,4.14c1,1.43,1.97,2.88,2.93,4.33.13.19.24.39.36.59Zm2.45-.01a.381.381,0,0,1-.19.04c2.77-2.88,5.33-5.99,9-7.94a4.474,4.474,0,0,1-.41,1.37,8,8,0,0,1-2.49,2.96A34.154,34.154,0,0,1,17.38,13.24Z"/></svg>