<svg xmlns="http://www.w3.org/2000/svg" viewBox="0 0 38.48 40"><defs><style>.a{fill:#fff;}.b,.c{fill:#d86827;}.c{fill-rule:evenodd;}</style></defs><path class="a" d="M30.85,39H3.15A2.759,2.759,0,0,1,.39,36.24V12.76A2.766,2.766,0,0,1,3.15,10H34.64a2.759,2.759,0,0,1,2.76,2.76V32.77Z"/><path class="b" d="M21.66,28.74a2.1,2.1,0,0,0-.55-1.53,5.455,5.455,0,0,0-1.94-1.11,10.677,10.677,0,0,1-3.89-2.06,4.286,4.286,0,0,1-1.27-3.3,4.286,4.286,0,0,1,1.27-3.21,5.537,5.537,0,0,1,3.44-1.47V13.57h1.85v2.52a5.16,5.16,0,0,1,3.28,1.63A4.96,4.96,0,0,1,25,21.21l-.02.06H21.67a2.928,2.928,0,0,0-.58-1.95,1.982,1.982,0,0,0-1.61-.68,1.964,1.964,0,0,0-1.58.57,2.25,2.25,0,0,0-.49,1.53,1.95,1.95,0,0,0,.52,1.43,6.229,6.229,0,0,0,1.98,1.15,10.12,10.12,0,0,1,3.86,2.05,4.384,4.384,0,0,1,1.28,3.33,4.293,4.293,0,0,1-1.26,3.24,5.632,5.632,0,0,1-3.45,1.44v2.29H18.49V33.38a6.18,6.18,0,0,1-3.67-1.48,4.666,4.666,0,0,1-1.39-3.77l.03-.07h3.3a2.666,2.666,0,0,0,.73,2.12,2.766,2.766,0,0,0,1.89.63,2.363,2.363,0,0,0,1.71-.56A1.99,1.99,0,0,0,21.66,28.74Z"/><path class="c" d="M11.35,31.35"/><path class="c" d="M35.12,1.53H33.75a1.039,1.039,0,0,0,.07-.35,1.175,1.175,0,1,0-2.35,0,1.279,1.279,0,0,0,.07.35h-4.5a1.039,1.039,0,0,0,.07-.35,1.175,1.175,0,1,0-2.35,0,.992.992,0,0,0,.07.35h-4.5a1.039,1.039,0,0,0,.07-.35,1.175,1.175,0,1,0-2.35,0,1.279,1.279,0,0,0,.07.35h-4.5a1.039,1.039,0,0,0,.07-.35A1.174,1.174,0,0,0,12.52,0a1.189,1.189,0,0,0-1.18,1.18,1.279,1.279,0,0,0,.07.35H6.91a.668.668,0,0,0,.1-.35,1.175,1.175,0,1,0-2.35,0,.992.992,0,0,0,.07.35H3.36A3.359,3.359,0,0,0,0,4.88V36.64A3.354,3.354,0,0,0,3.36,40H31.33l7.15-7.15V4.88a3.372,3.372,0,0,0-3.36-3.35Zm1.52,30.56-.38.38H33.39a2.45,2.45,0,0,0-2.44,2.44v2.87l-.38.38H3.36a1.536,1.536,0,0,1-1.53-1.53V10.99H36.64Zm0,0"/></svg>