<svg id="Layer_1" height="512" viewBox="0 0 512 512" width="512" xmlns="http://www.w3.org/2000/svg" data-name="Layer 1"><path d="m99.473 155.046c-.115 9.142-2.372 24.042-10.447 39.841-14.87 29.092 18.874 101.313 23.274 110.492 1.546 4 29.778 79.521-6.639 150.437a4.589 4.589 0 0 1 -3.253 2.389c-10.027 1.819-23.025 5.8-28 14.433a15.738 15.738 0 0 0 -1 13.563 19.5 19.5 0 0 0 16.965 12.721c2.46.184 4.826.268 7.1.268a79.2 79.2 0 0 0 28.821-5.118 23.694 23.694 0 0 0 13.983-15.312c9.7-32.972 22.742-70.555 33.315-88.425 3.2 5.463 8.757 11.78 18.379 16.559q6.534 22.177 25.97 46.9a6 6 0 0 0 .674.724l9.395 8.554c-15.981 1.039-38.884 5.767-44.341 23.876a14.842 14.842 0 0 0 13.779 19.118c13.185.375 36.79.935 60.245.935 4.392 0 8.782-.02 13.094-.064 15.531-.159 27.945-.621 36.9-1.371 14.731-1.235 20.068-3.055 21.964-7.489 4.5-10.523 10.032-10.641 35.421-9.459l3.1.143c53.421 2.437 87.378-19.815 95.6-62.645 5.827-30.345-5.748-55.191-19.181-80.072-4.674-8.655-9.312-16.082-13.4-22.633-12.693-20.324-21.079-33.75-18.22-61.771 1.723-16.9 15.074-19.176 29.347-19.131 3.648.01 7.787.026 9.3-4.341a6.3 6.3 0 0 0 -2.234-7.073c-15.97-12.47-35.021-16.182-48.532-9.454-9.958 4.957-21.719 17.648-21.2 49.957.629 39.318 16.45 69.282 29.162 93.359 5.294 10.026 9.865 18.686 12.273 26.132 3.391 10.494.428 20.919-8.129 28.6a35.02 35.02 0 0 1 -37.137 5.957l-.166-.074c6.286-43.083 3.838-81.544-7.344-114.351a165.9 165.9 0 0 0 -46.72-70.955c-34.361-30.785-73.561-41.253-88.818-44.325-.858-.172-1.868-.383-2.849-.634-32.982-8.438-48.532-34.23-46.216-76.661.993-18.213-1.867-43.467-21.138-60.351a57.063 57.063 0 0 0 -19.744-11.263c-1.411-8.467-7.715-17.629-18.812-27.313a145.431 145.431 0 0 0 -18.941-13.873 6 6 0 0 0 -8.32 8.063c1.474 2.659.778 8.555-.581 14.058a81.537 81.537 0 0 0 -27.015-10.091 6 6 0 0 0 -6.473 8.172c6.462 16.049 12.6 36.107 11.564 40.735-.948 1.682-2.639 4.05-4.424 6.552-5.777 8.1-13.689 19.183-14.264 30.7-.174 3.486-1.571 5.45-3.5 8.168-4.6 6.474-8 12.979-2.836 27.076 7.139 19.521 36.389 17.78 50.249 15.767zm-37.637-35.885c2.388-3.359 5.36-7.538 5.709-14.525.4-8.009 7.131-17.442 12.047-24.33a85.281 85.281 0 0 0 5.312-8c1.941-3.565 2.832-9.7-3.739-30.279-1.065-3.316-2.165-6.527-3.182-9.386a70.463 70.463 0 0 1 7.234 3.039c11.909 5.827 19.656 13.921 23.029 24.058a6 6 0 0 0 11.386-3.788 48.459 48.459 0 0 0 -13.162-20.256 66.539 66.539 0 0 0 2.794-12.468c2.219 1.669 4.611 3.573 6.974 5.642 10 8.755 15.279 16.711 14.863 22.4a6.031 6.031 0 0 0 4.955 6.348c1.575.283 38.546 7.534 35.662 60.375-1.836 33.659 6.254 76.412 55.226 88.941 1.247.319 2.445.569 3.453.772 26.739 5.383 157.117 40.693 133.911 212.5-7.909-3.937-13.147-6.947-13.221-6.99a6 6 0 0 0 -6 10.393c.454.262 11.28 6.49 25.829 12.992a46.574 46.574 0 0 0 50.05-7.984c12.064-10.824 16.374-26.234 11.534-41.215-2.728-8.438-7.525-17.524-13.08-28.045-12.114-22.945-27.191-51.5-27.775-87.949-.33-20.625 4.7-34.118 14.551-39.022 5.823-2.9 12.924-2.559 19.817-.371a40.555 40.555 0 0 0 -6.141 1.965c-11.028 4.57-17.543 13.715-18.842 26.445-3.275 32.11 6.988 48.542 19.981 69.346 4.194 6.713 8.53 13.656 13.022 21.978 15.215 28.179 22.582 48.016 17.956 72.107-4.436 23.1-17.223 38.888-38.007 46.926-18.634 7.207-38.679 6.3-45.265 5.994l-3.09-.142c-24.474-1.14-38.271-1.78-46.313 15.175-7.949 2.68-47.723 4.364-121.523 2.265a2.842 2.842 0 0 1 -2.631-3.66c4.661-15.466 36.123-16.335 47.847-15.364a6 6 0 0 0 4.542-10.416l-20.483-18.65c-22.522-28.728-30.684-54.108-24.265-75.443 9.417-31.3 47.736-44.285 48.114-44.41a6 6 0 0 0 -3.733-11.4c-1.815.594-44.57 14.979-55.847 52.276a63.617 63.617 0 0 0 -2.458 23.4 25.634 25.634 0 0 1 -7.016-10.625 50.788 50.788 0 0 0 12.207-43.281 6 6 0 1 0 -11.679 2.754 38.884 38.884 0 0 1 -11.3 34.445c-15.182 14.876-33.035 70.092-42.326 101.681a11.618 11.618 0 0 1 -6.838 7.522c-6.227 2.433-16.6 5.113-30.654 4.059a7.49 7.49 0 0 1 -6.568-4.81 3.789 3.789 0 0 1 .1-3.512c2-3.469 9.57-6.773 19.752-8.622a16.662 16.662 0 0 0 11.785-8.716c20.78-40.466 21.6-81.93 18.624-109.589-3.215-29.905-11.25-50.124-11.59-50.97-.049-.123-.1-.244-.161-.363-10.068-20.913-33.919-79.649-23.5-100.027 14.772-28.9 11.454-52.306 11.305-53.289a6 6 0 0 0 -7.218-4.962c-12.315 2.7-39.1 4.555-43.309-6.939-3.408-9.315-1.619-11.831 1.345-16z"/></svg>