<svg id="Capa_1" enable-background="new 0 0 512 512" height="512" viewBox="0 0 512 512" width="512" xmlns="http://www.w3.org/2000/svg"><g><path d="m210.681 148.487c37.117 0 67.313-32.493 67.313-72.433 0-39.925-30.197-72.405-67.313-72.405-37.101 0-67.285 32.48-67.285 72.405 0 39.94 30.184 72.433 67.285 72.433zm0-124.838c26.089 0 47.313 23.509 47.313 52.405 0 28.911-21.225 52.433-47.313 52.433-26.073 0-47.285-23.521-47.285-52.433 0-28.896 21.211-52.405 47.285-52.405z"/><path d="m134.599 140.26c0-39.925-30.184-72.405-67.285-72.405-37.117-.001-67.314 32.48-67.314 72.405 0 39.924 30.197 72.404 67.313 72.404 37.102 0 67.286-32.48 67.286-72.404zm-114.599 0c0-28.896 21.225-52.405 47.313-52.405 26.073 0 47.285 23.509 47.285 52.405s-21.212 52.404-47.285 52.404c-26.088 0-47.313-23.509-47.313-52.404z"/><path d="m354.077 212.664c37.117 0 67.313-32.48 67.313-72.404 0-39.925-30.197-72.405-67.313-72.405-37.101 0-67.285 32.48-67.285 72.405 0 39.924 30.184 72.404 67.285 72.404zm0-124.81c26.089 0 47.313 23.509 47.313 52.405s-21.225 52.404-47.313 52.404c-26.073 0-47.285-23.509-47.285-52.404 0-28.896 21.211-52.405 47.285-52.405z"/><path d="m391.198 266.741c-13.258 0-26.02 2.153-37.964 6.117-14.036-21.071-36.139-35.311-61.168-39.277-15.672-29.321-46.481-47.977-80.007-47.977s-64.335 18.655-80.007 47.977c-20.186 3.198-38.704 13.143-52.63 28.371-15.309 16.741-23.74 38.463-23.74 61.163 0 5.522 4.477 10 10 10s10-4.478 10-10c0-36.646 27.468-66.884 63.893-70.337 3.561-.337 6.671-2.551 8.155-5.806 11.462-25.13 36.713-41.368 64.33-41.368s52.867 16.238 64.329 41.368c1.484 3.254 4.592 5.467 8.151 5.806 20.043 1.906 38.066 12.213 49.92 28.143-38.086 20.35-64.064 60.507-64.064 106.623 0 1.968.051 3.924.145 5.869-13.738-1.413-26.868-6.818-37.572-15.598-.136-.112-.275-.22-.417-.324-7.802-5.738-14.707-7.576-20.552-7.512-10.167-.314-19.792 6.944-20.886 7.842-12.536 10.304-28.428 15.978-44.749 15.978-11.961 0-23.755-3.029-34.106-8.761-4.834-2.676-10.918-.927-13.592 3.905-2.675 4.832-.927 10.917 3.905 13.593 13.309 7.368 28.452 11.263 43.793 11.263 20.613 0 40.705-7.064 56.69-19.911 2.577-1.437 5.21-3.416 8.207-3.837 3.409-.479 6.604 1.491 9.244 3.409 14.935 12.171 33.505 19.254 52.745 20.216 11.975 54.091 60.307 94.673 117.947 94.673 66.61 0 120.802-54.192 120.802-120.805s-54.191-120.803-120.802-120.803zm0 221.61c-55.583 0-100.802-45.221-100.802-100.805s45.22-100.805 100.802-100.805 100.802 45.221 100.802 100.805-45.22 100.805-100.802 100.805z"/><path d="m436.46 342.284c-3.904-3.906-10.236-3.908-14.142-.002l-31.12 31.11-31.12-31.11c-3.905-3.904-10.237-3.903-14.142.002-3.905 3.906-3.903 10.238.002 14.143l31.116 31.105-31.116 31.105c-3.906 3.904-3.907 10.236-.002 14.143 1.953 1.953 4.512 2.93 7.072 2.93 2.559 0 5.117-.976 7.07-2.928l31.12-31.11 31.12 31.11c1.953 1.952 4.511 2.928 7.07 2.928 2.56 0 5.12-.977 7.072-2.93 3.905-3.906 3.903-10.238-.002-14.143l-31.116-31.105 31.116-31.105c3.906-3.905 3.907-10.237.002-14.143z"/><path d="m69.231 356.414c-3.836 3.974-3.725 10.304.248 14.141l.028.027c1.938 1.87 4.432 2.799 6.924 2.799 2.619 0 5.236-1.025 7.201-3.061 3.836-3.974 3.711-10.317-.262-14.154-3.973-3.836-10.304-3.726-14.139.248z"/></g></svg>